<svg width="24" height="24" viewBox="0 0 24 24" fill="none" xmlns="http://www.w3.org/2000/svg">
<circle cx="12" cy="12" r="9" fill="black" stroke="black" stroke-width="2"/>
<path d="M12.5 18C12.5 18.2761 12.2761 18.5 12 18.5C11.7239 18.5 11.5 18.2761 11.5 18C11.5 17.7239 11.7239 17.5 12 17.5C12.2761 17.5 12.5 17.7239 12.5 18Z" fill="white" stroke="white"/>
<path d="M12 16V14.5811C12 13.6369 12.6042 12.7986 13.5 12.5V12.5C14.3958 12.2014 15 11.3631 15 10.4189V9.90569C15 8.30092 13.6991 7 12.0943 7H12C10.3431 7 9 8.34315 9 10V10" stroke="white" stroke-width="2"/>
</svg>
