<?xml version="1.0" encoding="UTF-8"?>
<svg id="Layer_2" data-name="Layer 2" xmlns="http://www.w3.org/2000/svg" xmlns:xlink="http://www.w3.org/1999/xlink" viewBox="0 0 1730.21 1729.08">
  <defs>
    <style>
      .cls-1, .cls-2 {
        fill: none;
      }

      .cls-3 {
        fill: url(#Hexagon_Chinese_Color);
      }

      .cls-4 {
        letter-spacing: .02em;
      }

      .cls-5 {
        fill: url(#Herringbone_2_Color);
      }

      .cls-6 {
        fill: #f3eb34;
      }

      .cls-7 {
        fill: #0095af;
      }

      .cls-8 {
        fill: #f28221;
      }

      .cls-9 {
        fill: #8f774e;
      }

      .cls-10 {
        fill: #a97c50;
      }

      .cls-11 {
        fill: #a54b1a;
      }

      .cls-12 {
        fill: #a91d1a;
      }

      .cls-13 {
        fill: #dee19f;
      }

      .cls-14 {
        fill: #d1d3d4;
      }

      .cls-15 {
        fill: #715725;
      }

      .cls-16 {
        fill: #231f20;
        font-family: MADEGentle, MADEGentle;
        font-size: 24px;
      }

      .cls-2 {
        stroke: #007534;
        stroke-linecap: round;
      }
    </style>
    <pattern id="Hexagon_Chinese_Color" data-name="Hexagon Chinese Color" x="0" y="0" width="55.43" height="96" patternTransform="translate(-1899.54 .54)" patternUnits="userSpaceOnUse" viewBox="0 0 55.43 96">
      <g>
        <rect class="cls-1" width="55.43" height="96"/>
        <g>
          <polyline class="cls-2" points="55.43 125.33 80.83 110.67 80.83 93.63"/>
          <polyline class="cls-2" points="55.43 122.67 78.52 109.33 78.52 93.62"/>
          <polyline class="cls-2" points="55.43 120 76.21 108 76.21 93.62"/>
          <polyline class="cls-2" points="55.43 128 83.14 112 83.14 93.63"/>
          <polyline class="cls-2" points="55.43 92 55.43 96 52.83 97.5"/>
          <line class="cls-2" x1="55.43" y1="96" x2="76.21" y2="108"/>
        </g>
        <g>
          <line class="cls-2" x1="16.14" y1="97.31" x2="20.77" y2="94.63"/>
          <line class="cls-2" x1="13.84" y1="95.98" x2="20.78" y2="91.97"/>
          <line class="cls-2" x1="39.28" y1="97.3" x2="34.66" y2="94.63"/>
          <line class="cls-2" x1="41.59" y1="95.98" x2="34.65" y2="91.97"/>
          <polyline class="cls-2" points="0 125.33 25.4 110.67 25.4 93.63"/>
          <polyline class="cls-2" points="0 122.67 23.09 109.33 23.09 93.62"/>
          <polyline class="cls-2" points="0 120 20.79 108 20.79 93.62"/>
          <polyline class="cls-2" points="30.02 93.63 30.02 110.67 55.43 125.33"/>
          <polyline class="cls-2" points="32.33 93.62 32.33 109.33 55.43 122.67"/>
          <polyline class="cls-2" points="34.64 93.62 34.64 108 55.43 120"/>
          <polyline class="cls-2" points="27.71 93.63 27.71 112 55.43 128"/>
          <polyline class="cls-2" points="0 128 27.71 112 27.71 93.63"/>
          <line class="cls-2" x1="2.31" y1="94.67" x2="20.8" y2="105.32"/>
          <line class="cls-2" x1="4.62" y1="93.33" x2="20.82" y2="102.71"/>
          <line class="cls-2" x1="6.93" y1="92" x2="20.82" y2="99.96"/>
          <polyline class="cls-2" points="55.43 92 55.43 96 58.03 97.5"/>
          <line class="cls-2" x1="55.43" y1="96" x2="34.64" y2="108"/>
          <line class="cls-2" x1="53.12" y1="94.67" x2="34.63" y2="105.32"/>
          <line class="cls-2" x1="50.81" y1="93.33" x2="34.61" y2="102.71"/>
          <line class="cls-2" x1="48.5" y1="92" x2="34.61" y2="99.96"/>
          <polyline class="cls-2" points="0 92 0 96 -2.6 97.5"/>
          <line class="cls-2" y1="96" x2="20.78" y2="108"/>
        </g>
        <g>
          <polyline class="cls-2" points="-25.4 93.63 -25.4 110.67 0 125.33"/>
          <polyline class="cls-2" points="-23.1 93.62 -23.1 109.33 0 122.67"/>
          <polyline class="cls-2" points="-20.78 93.62 -20.78 108 0 120"/>
          <polyline class="cls-2" points="-27.71 93.63 -27.71 112 0 128"/>
          <polyline class="cls-2" points="0 92 0 96 2.6 97.5"/>
          <line class="cls-2" x1="0" y1="96" x2="-20.78" y2="108"/>
        </g>
        <g>
          <line class="cls-2" x1="55.43" y1="8" x2="55.43" y2="24"/>
          <polyline class="cls-2" points="55.43 66.67 80.83 81.33 80.83 98.37"/>
          <polyline class="cls-2" points="55.43 69.33 78.52 82.67 78.52 98.38"/>
          <polyline class="cls-2" points="55.43 72 76.21 84 76.21 98.38"/>
          <polyline class="cls-2" points="55.43 29.33 80.83 14.67 80.83 -2.37"/>
          <polyline class="cls-2" points="55.43 26.67 78.52 13.33 78.52 -2.38"/>
          <polyline class="cls-2" points="55.43 24 76.21 12 76.21 -2.38"/>
          <polygon class="cls-2" points="110.85 32 110.85 64 83.14 80 55.43 64 55.43 32 83.14 16 110.85 32"/>
          <polyline class="cls-2" points="55.43 64 83.14 80 83.14 98.37"/>
          <polyline class="cls-2" points="55.43 32 83.14 16 83.14 -2.37"/>
          <polyline class="cls-2" points="55.43 72 55.43 96 58.89 98"/>
          <line class="cls-2" x1="55.43" y1="96" x2="51.96" y2="98"/>
          <polyline class="cls-2" points="55.43 -4 55.43 0 52.83 1.5"/>
          <line class="cls-2" x1="55.43" x2="76.21" y2="12"/>
          <polyline class="cls-2" points="53.39 3.84 55.43 2.67 73.9 13.35"/>
          <polyline class="cls-2" points="53.96 6.18 55.43 5.33 71.65 14.68"/>
          <polyline class="cls-2" points="54.52 8.52 55.43 8 69.26 16.05"/>
        </g>
        <g>
          <rect class="cls-13" width="55.43" height="96"/>
          <line class="cls-2" x1="34.66" y1="30.71" x2="36.98" y2="29.37"/>
          <line class="cls-2" x1="34.66" y1="33.37" x2="39.28" y2="30.69"/>
          <line class="cls-2" x1="34.65" y1="36.03" x2="41.59" y2="32.02"/>
          <line class="cls-2" x1="34.65" y1="38.68" x2="43.89" y2="33.35"/>
          <line class="cls-2" x1="34.65" y1="41.34" x2="46.19" y2="34.67"/>
          <line class="cls-2" x1="34.64" y1="44" x2="48.5" y2="36"/>
          <line class="cls-2" x1="46.16" y1="50.63" x2="48.48" y2="49.29"/>
          <line class="cls-2" x1="43.86" y1="49.31" x2="48.49" y2="46.63"/>
          <line class="cls-2" x1="41.55" y1="47.98" x2="48.49" y2="43.97"/>
          <line class="cls-2" x1="39.25" y1="46.65" x2="48.49" y2="41.32"/>
          <line class="cls-2" x1="36.95" y1="45.33" x2="48.5" y2="38.66"/>
          <line class="cls-2" x1="9.27" y1="50.63" x2="6.94" y2="49.29"/>
          <line class="cls-2" x1="11.57" y1="49.3" x2="6.94" y2="46.63"/>
          <line class="cls-2" x1="13.87" y1="47.98" x2="6.94" y2="43.97"/>
          <line class="cls-2" x1="16.18" y1="46.65" x2="6.94" y2="41.32"/>
          <line class="cls-2" x1="18.48" y1="45.33" x2="6.93" y2="38.66"/>
          <line class="cls-2" x1="20.79" y1="44" x2="6.93" y2="36"/>
          <line class="cls-2" x1="20.77" y1="30.71" x2="18.45" y2="29.37"/>
          <line class="cls-2" x1="20.77" y1="33.37" x2="16.14" y2="30.69"/>
          <line class="cls-2" x1="20.78" y1="36.02" x2="13.84" y2="32.02"/>
          <line class="cls-2" x1="20.78" y1="38.68" x2="11.54" y2="33.35"/>
          <line class="cls-2" x1="20.78" y1="41.34" x2="9.23" y2="34.67"/>
          <line class="cls-2" x1="39.22" y1="62.66" x2="39.22" y2="65.34"/>
          <line class="cls-2" x1="36.91" y1="61.33" x2="36.91" y2="66.67"/>
          <line class="cls-2" x1="34.61" y1="60" x2="34.61" y2="68"/>
          <line class="cls-2" x1="32.31" y1="58.66" x2="32.31" y2="69.34"/>
          <line class="cls-2" x1="30.01" y1="57.33" x2="30.01" y2="70.67"/>
          <line class="cls-2" x1="27.71" y1="56" x2="27.71" y2="72"/>
          <line class="cls-2" x1="16.21" y1="62.66" x2="16.21" y2="65.34"/>
          <line class="cls-2" x1="18.51" y1="61.33" x2="18.51" y2="66.67"/>
          <line class="cls-2" x1="20.81" y1="60" x2="20.81" y2="68"/>
          <line class="cls-2" x1="23.11" y1="58.66" x2="23.11" y2="69.34"/>
          <line class="cls-2" x1="25.41" y1="57.33" x2="25.41" y2="70.67"/>
          <line class="cls-2" x1="18.45" y1="2.63" x2="20.77" y2="1.29"/>
          <line class="cls-2" x1="16.14" y1="1.31" x2="20.77" y2="-1.37"/>
          <line class="cls-2" x1="13.84" y1="-.02" x2="20.78" y2="-4.03"/>
          <line class="cls-2" x1="11.5" y1="14.66" x2="11.5" y2="17.34"/>
          <line class="cls-2" x1="9.2" y1="13.33" x2="9.2" y2="18.67"/>
          <line class="cls-2" x1="6.9" y1="12" x2="6.9" y2="20"/>
          <line class="cls-2" x1="4.6" y1="10.66" x2="4.6" y2="21.34"/>
          <line class="cls-2" x1="2.3" y1="9.33" x2="2.3" y2="22.67"/>
          <line class="cls-2" y1="8" y2="24"/>
          <line class="cls-2" x1="36.98" y1="2.63" x2="34.66" y2="1.29"/>
          <line class="cls-2" x1="39.28" y1="1.3" x2="34.66" y2="-1.37"/>
          <line class="cls-2" x1="41.59" y1="-.02" x2="34.65" y2="-4.03"/>
          <line class="cls-2" x1="55.43" y1="8" x2="55.43" y2="24"/>
          <line class="cls-2" x1="43.92" y1="14.66" x2="43.92" y2="17.34"/>
          <line class="cls-2" x1="46.22" y1="13.33" x2="46.22" y2="18.67"/>
          <line class="cls-2" x1="48.52" y1="12" x2="48.52" y2="20"/>
          <line class="cls-2" x1="50.83" y1="10.66" x2="50.83" y2="21.34"/>
          <line class="cls-2" x1="53.13" y1="9.33" x2="53.13" y2="22.67"/>
          <line class="cls-2" x1="6.94" y1="78.71" x2="9.27" y2="77.37"/>
          <line class="cls-2" x1="6.94" y1="81.37" x2="11.57" y2="78.69"/>
          <line class="cls-2" x1="6.94" y1="84.03" x2="13.87" y2="80.02"/>
          <line class="cls-2" x1="6.94" y1="86.68" x2="16.18" y2="81.35"/>
          <line class="cls-2" x1="6.93" y1="89.34" x2="18.48" y2="82.67"/>
          <line class="cls-2" x1="6.93" y1="92" x2="20.79" y2="84"/>
          <line class="cls-2" x1="16.14" y1="97.31" x2="20.77" y2="94.63"/>
          <line class="cls-2" x1="13.84" y1="95.98" x2="20.78" y2="91.97"/>
          <line class="cls-2" x1="11.54" y1="94.65" x2="20.78" y2="89.32"/>
          <line class="cls-2" x1="9.23" y1="93.33" x2="20.78" y2="86.66"/>
          <line class="cls-2" x1="39.28" y1="97.3" x2="34.66" y2="94.63"/>
          <line class="cls-2" x1="41.59" y1="95.98" x2="34.65" y2="91.97"/>
          <line class="cls-2" x1="43.89" y1="94.65" x2="34.65" y2="89.32"/>
          <line class="cls-2" x1="46.19" y1="93.33" x2="34.65" y2="86.66"/>
          <line class="cls-2" x1="48.5" y1="92" x2="34.64" y2="84"/>
          <line class="cls-2" x1="48.48" y1="78.71" x2="46.16" y2="77.37"/>
          <line class="cls-2" x1="48.49" y1="81.37" x2="43.86" y2="78.69"/>
          <line class="cls-2" x1="48.49" y1="84.02" x2="41.55" y2="80.02"/>
          <line class="cls-2" x1="48.49" y1="86.68" x2="39.25" y2="81.35"/>
          <line class="cls-2" x1="48.5" y1="89.34" x2="36.95" y2="82.67"/>
          <polygon class="cls-2" points="48.5 36 48.5 60 27.71 72 6.93 60 6.93 36 27.71 24 48.5 36"/>
          <polygon class="cls-2" points="27.71 18.67 53.12 33.33 53.12 62.67 27.71 77.33 2.31 62.67 2.31 33.33 27.71 18.67"/>
          <polygon class="cls-2" points="27.71 21.33 50.81 34.67 50.81 61.33 27.71 74.67 4.62 61.33 4.62 34.67 27.71 21.33"/>
          <polyline class="cls-2" points="0 66.67 25.4 81.33 25.4 98.37"/>
          <polyline class="cls-2" points="0 69.33 23.09 82.67 23.09 98.38"/>
          <polyline class="cls-2" points="0 72 20.79 84 20.79 98.38"/>
          <polyline class="cls-2" points="30.02 98.37 30.02 81.33 55.43 66.67"/>
          <polyline class="cls-2" points="32.33 98.38 32.33 82.67 55.43 69.33"/>
          <polyline class="cls-2" points="34.64 98.38 34.64 84 55.43 72"/>
          <polyline class="cls-2" points="0 29.33 25.4 14.67 25.4 -2.37"/>
          <polyline class="cls-2" points="0 26.67 23.09 13.33 23.09 -2.38"/>
          <polyline class="cls-2" points="0 24 20.79 12 20.79 -2.38"/>
          <polyline class="cls-2" points="30.02 -2.37 30.02 14.67 55.43 29.33"/>
          <polyline class="cls-2" points="32.33 -2.38 32.33 13.33 55.43 26.67"/>
          <polyline class="cls-2" points="34.64 -2.38 34.64 12 55.43 24"/>
          <polygon class="cls-2" points="55.43 32 55.43 64 27.71 80 0 64 0 32 27.71 16 55.43 32"/>
          <polyline class="cls-2" points="27.71 -2.37 27.71 16 55.43 32"/>
          <polyline class="cls-2" points="0 64 27.71 80 27.71 98.37"/>
          <polyline class="cls-2" points="27.71 98.37 27.71 80 55.43 64"/>
          <polyline class="cls-2" points="0 32 27.71 16 27.71 -2.37"/>
          <polyline class="cls-2" points="27.71 24 27.71 48 48.5 60"/>
          <polyline class="cls-2" points="30.02 25.32 30.02 46.67 48.51 57.32"/>
          <polyline class="cls-2" points="32.33 26.64 32.33 45.33 48.53 54.71"/>
          <polyline class="cls-2" points="34.64 27.96 34.64 44 48.53 51.96"/>
          <line class="cls-2" x1="27.71" y1="48" x2="6.93" y2="60"/>
          <polyline class="cls-2" points="46.2 61.34 27.71 50.67 9.24 61.35"/>
          <polyline class="cls-2" points="43.9 62.68 27.71 53.33 11.49 62.68"/>
          <polyline class="cls-2" points="41.61 64.02 27.71 56 13.87 64.05"/>
          <polyline class="cls-2" points="25.4 25.32 25.4 46.67 6.92 57.32"/>
          <polyline class="cls-2" points="23.09 26.64 23.09 45.33 6.89 54.71"/>
          <polyline class="cls-2" points="20.79 27.96 20.79 44 6.89 51.96"/>
          <line class="cls-2" x1="2.31" y1="-1.33" x2="20.8" y2="9.32"/>
          <line class="cls-2" x1="4.62" y1="-2.67" x2="20.82" y2="6.71"/>
          <line class="cls-2" x1="6.93" y1="-4" x2="20.82" y2="3.96"/>
          <polyline class="cls-2" points="55.43 -4 55.43 0 58.03 1.5"/>
          <line class="cls-2" x1="55.43" x2="34.64" y2="12"/>
          <polyline class="cls-2" points="57.46 3.84 55.43 2.67 36.96 13.35"/>
          <polyline class="cls-2" points="56.89 6.18 55.43 5.33 39.21 14.68"/>
          <polyline class="cls-2" points="56.33 8.52 55.43 8 41.59 16.05"/>
          <line class="cls-2" x1="53.12" y1="-1.33" x2="34.63" y2="9.32"/>
          <line class="cls-2" x1="50.81" y1="-2.67" x2="34.61" y2="6.71"/>
          <line class="cls-2" x1="48.5" y1="-4" x2="34.61" y2="3.96"/>
          <polyline class="cls-2" points="0 72 0 96 3.46 98"/>
          <polyline class="cls-2" points="2.31 73.32 2.31 94.67 7.8 97.82"/>
          <polyline class="cls-2" points="4.62 74.64 4.62 93.33 12.16 97.71"/>
          <polyline class="cls-2" points="6.93 75.96 6.93 92 16.49 97.46"/>
          <line class="cls-2" y1="96" x2="-3.46" y2="98"/>
          <polyline class="cls-2" points="53.12 73.32 53.12 94.67 47.62 97.82"/>
          <polyline class="cls-2" points="50.81 74.64 50.81 93.33 43.26 97.71"/>
          <polyline class="cls-2" points="48.5 75.96 48.5 92 38.94 97.46"/>
          <polyline class="cls-2" points="0 -4 0 0 -2.6 1.5"/>
          <line class="cls-2" x2="20.78" y2="12"/>
          <polyline class="cls-2" points="-2.03 3.84 0 2.67 18.47 13.35"/>
          <polyline class="cls-2" points="-1.47 6.18 0 5.33 16.22 14.68"/>
          <polyline class="cls-2" points="-.9 8.52 0 8 13.84 16.05"/>
          <polyline class="cls-2" points="55.43 72 55.43 96 58.89 98"/>
          <line class="cls-2" x1="55.43" y1="96" x2="51.96" y2="98"/>
        </g>
        <g>
          <line class="cls-2" x1="0" y1="8" x2="0" y2="24"/>
          <polyline class="cls-2" points="-25.4 98.37 -25.4 81.33 0 66.67"/>
          <polyline class="cls-2" points="-23.1 98.38 -23.1 82.67 0 69.33"/>
          <polyline class="cls-2" points="-20.78 98.38 -20.78 84 0 72"/>
          <polyline class="cls-2" points="-25.4 -2.37 -25.4 14.67 0 29.33"/>
          <polyline class="cls-2" points="-23.1 -2.38 -23.1 13.33 0 26.67"/>
          <polyline class="cls-2" points="-20.78 -2.38 -20.78 12 0 24"/>
          <polygon class="cls-2" points="0 32 0 64 -27.71 80 -55.43 64 -55.43 32 -27.71 16 0 32"/>
          <polyline class="cls-2" points="-27.71 -2.37 -27.71 16 0 32"/>
          <polyline class="cls-2" points="-27.71 98.37 -27.71 80 0 64"/>
          <polyline class="cls-2" points="0 -4 0 0 2.6 1.5"/>
          <line class="cls-2" x1="0" x2="-20.78" y2="12"/>
          <polyline class="cls-2" points="2.03 3.84 0 2.67 -18.47 13.35"/>
          <polyline class="cls-2" points="1.47 6.18 0 5.33 -16.22 14.68"/>
          <polyline class="cls-2" points=".9 8.52 0 8 -13.84 16.05"/>
          <polyline class="cls-2" points="0 72 0 96 3.46 98"/>
          <line class="cls-2" x1="0" y1="96" x2="-3.46" y2="98"/>
        </g>
        <g>
          <polyline class="cls-2" points="55.43 -29.33 80.83 -14.67 80.83 2.37"/>
          <polyline class="cls-2" points="55.43 -26.67 78.52 -13.33 78.52 2.38"/>
          <polyline class="cls-2" points="55.43 -24 76.21 -12 76.21 2.38"/>
          <polyline class="cls-2" points="55.43 -32 83.14 -16 83.14 2.37"/>
          <polyline class="cls-2" points="55.43 -24 55.43 0 58.89 2"/>
          <line class="cls-2" x1="55.43" x2="51.96" y2="2"/>
        </g>
        <g>
          <line class="cls-2" x1="16.14" y1="1.31" x2="20.77" y2="-1.37"/>
          <line class="cls-2" x1="13.84" y1="-.02" x2="20.78" y2="-4.03"/>
          <line class="cls-2" x1="39.28" y1="1.3" x2="34.66" y2="-1.37"/>
          <line class="cls-2" x1="41.59" y1="-.02" x2="34.65" y2="-4.03"/>
          <polyline class="cls-2" points="0 -29.33 25.4 -14.67 25.4 2.37"/>
          <polyline class="cls-2" points="0 -26.67 23.09 -13.33 23.09 2.38"/>
          <polyline class="cls-2" points="0 -24 20.79 -12 20.79 2.38"/>
          <polyline class="cls-2" points="30.02 2.37 30.02 -14.67 55.43 -29.33"/>
          <polyline class="cls-2" points="32.33 2.38 32.33 -13.33 55.43 -26.67"/>
          <polyline class="cls-2" points="34.64 2.38 34.64 -12 55.43 -24"/>
          <polyline class="cls-2" points="0 -32 27.71 -16 27.71 2.37"/>
          <polyline class="cls-2" points="27.71 2.37 27.71 -16 55.43 -32"/>
          <polyline class="cls-2" points="0 -24 0 0 3.46 2"/>
          <polyline class="cls-2" points="2.31 -22.68 2.31 -1.33 7.8 1.82"/>
          <polyline class="cls-2" points="4.62 -21.36 4.62 -2.67 12.16 1.71"/>
          <polyline class="cls-2" points="6.93 -20.04 6.93 -4 16.49 1.46"/>
          <line class="cls-2" x2="-3.46" y2="2"/>
          <polyline class="cls-2" points="53.12 -22.68 53.12 -1.33 47.62 1.82"/>
          <polyline class="cls-2" points="50.81 -21.36 50.81 -2.67 43.26 1.71"/>
          <polyline class="cls-2" points="48.5 -20.04 48.5 -4 38.94 1.46"/>
          <polyline class="cls-2" points="55.43 -24 55.43 0 58.89 2"/>
          <line class="cls-2" x1="55.43" x2="51.96" y2="2"/>
        </g>
        <g>
          <polyline class="cls-2" points="-25.4 2.37 -25.4 -14.67 0 -29.33"/>
          <polyline class="cls-2" points="-23.1 2.38 -23.1 -13.33 0 -26.67"/>
          <polyline class="cls-2" points="-20.78 2.38 -20.78 -12 0 -24"/>
          <polyline class="cls-2" points="-27.71 2.37 -27.71 -16 0 -32"/>
          <polyline class="cls-2" points="0 -24 0 0 3.46 2"/>
          <line class="cls-2" x1="0" x2="-3.46" y2="2"/>
        </g>
      </g>
    </pattern>
    <pattern id="Herringbone_2_Color" data-name="Herringbone 2 Color" x="0" y="0" width="75.66" height="57" patternTransform="translate(-1899.54 .54)" patternUnits="userSpaceOnUse" viewBox="0 0 75.66 57">
      <g>
        <rect class="cls-1" x="0" width="75.66" height="57"/>
        <rect class="cls-9" x="75.52" y="38.74" width="75.79" height="28.68"/>
        <g>
          <rect class="cls-9" x="-.14" y="38.74" width="75.79" height="28.68"/>
          <path class="cls-15" d="m10.31,59.68c-.76-.66-.84-1.8-.18-2.56.66-.75,1.8-.83,2.56-.18l5.47,4.76c.76.66.84,1.8.18,2.56-.66.75-1.8.83-2.56.18l-5.47-4.76Z"/>
          <path class="cls-15" d="m29.22,59.68c-.75-.66-.84-1.8-.18-2.56.66-.75,1.8-.83,2.56-.18l5.47,4.76c.75.66.84,1.8.18,2.56-.66.75-1.8.83-2.56.18l-5.47-4.76Z"/>
          <path class="cls-15" d="m48.14,59.68c-.75-.66-.84-1.8-.18-2.56.66-.75,1.8-.83,2.56-.18l5.47,4.76c.75.66.83,1.8.18,2.56-.66.75-1.8.83-2.56.18l-5.47-4.76Z"/>
          <path class="cls-15" d="m67.05,59.68c-.76-.66-.84-1.8-.18-2.56.66-.75,1.8-.83,2.56-.18l5.47,4.76c.76.66.84,1.8.18,2.56-.66.75-1.8.83-2.56.18l-5.47-4.76Z"/>
          <path class="cls-15" d="m10.31,52.55c-.76-.66-.84-1.8-.18-2.56.66-.75,1.8-.83,2.56-.18l5.47,4.76c.76.66.84,1.8.18,2.56-.66.75-1.8.83-2.56.18l-5.47-4.76Z"/>
          <path class="cls-15" d="m29.22,52.55c-.75-.66-.84-1.8-.18-2.56.66-.75,1.8-.83,2.56-.18l5.47,4.76c.75.66.84,1.8.18,2.56-.66.75-1.8.83-2.56.18l-5.47-4.76Z"/>
          <path class="cls-15" d="m48.14,52.55c-.75-.66-.84-1.8-.18-2.56.66-.75,1.8-.83,2.56-.18l5.47,4.76c.75.66.83,1.8.18,2.56-.66.75-1.8.83-2.56.18l-5.47-4.76Z"/>
          <path class="cls-15" d="m67.05,52.55c-.76-.66-.84-1.8-.18-2.56.66-.75,1.8-.83,2.56-.18l5.47,4.76c.76.66.84,1.8.18,2.56-.66.75-1.8.83-2.56.18l-5.47-4.76Z"/>
          <path class="cls-15" d="m10.31,45.43c-.76-.66-.84-1.8-.18-2.56.66-.75,1.8-.83,2.56-.18l5.47,4.76c.76.66.84,1.8.18,2.56-.66.75-1.8.83-2.56.18l-5.47-4.76Z"/>
          <path class="cls-15" d="m29.22,45.43c-.75-.66-.84-1.8-.18-2.56.66-.75,1.8-.83,2.56-.18l5.47,4.76c.75.66.84,1.8.18,2.56-.66.75-1.8.83-2.56.18l-5.47-4.76Z"/>
          <path class="cls-15" d="m48.14,45.43c-.75-.66-.84-1.8-.18-2.56.66-.75,1.8-.83,2.56-.18l5.47,4.76c.75.66.83,1.8.18,2.56-.66.75-1.8.83-2.56.18l-5.47-4.76Z"/>
          <path class="cls-15" d="m67.05,45.43c-.76-.66-.84-1.8-.18-2.56.66-.75,1.8-.83,2.56-.18l5.47,4.76c.76.66.84,1.8.18,2.56-.66.75-1.8.83-2.56.18l-5.47-4.76Z"/>
          <path class="cls-15" d="m8.7,56.11c.76-.66.84-1.8.18-2.56-.66-.76-1.8-.84-2.56-.18l-5.47,4.76c-.75.66-.83,1.8-.18,2.56.66.76,1.8.84,2.56.18l5.47-4.76Z"/>
          <path class="cls-15" d="m27.62,56.11c.75-.66.83-1.8.18-2.56-.66-.76-1.8-.84-2.56-.18l-5.47,4.76c-.76.66-.84,1.8-.18,2.56.66.76,1.8.84,2.56.18l5.47-4.76Z"/>
          <path class="cls-15" d="m8.7,42.16c.76-.66.84-1.8.18-2.56-.66-.76-1.8-.84-2.56-.18l-5.47,4.76c-.75.66-.83,1.8-.18,2.56.66.76,1.8.84,2.56.18l5.47-4.76Z"/>
          <path class="cls-15" d="m8.7,48.99c.76-.66.84-1.8.18-2.56-.66-.76-1.8-.84-2.56-.18l-5.47,4.76c-.75.66-.83,1.8-.18,2.56.66.76,1.8.84,2.56.18l5.47-4.76Z"/>
          <path class="cls-15" d="m27.62,42.16c.75-.66.83-1.8.18-2.56-.66-.76-1.8-.84-2.56-.18l-5.47,4.76c-.76.66-.84,1.8-.18,2.56.66.76,1.8.84,2.56.18l5.47-4.76Z"/>
          <path class="cls-15" d="m27.62,48.99c.75-.66.83-1.8.18-2.56-.66-.76-1.8-.84-2.56-.18l-5.47,4.76c-.76.66-.84,1.8-.18,2.56.66.76,1.8.84,2.56.18l5.47-4.76Z"/>
          <path class="cls-15" d="m46.53,56.11c.75-.66.84-1.8.18-2.56-.66-.76-1.8-.84-2.56-.18l-5.47,4.76c-.75.66-.83,1.8-.18,2.56.66.76,1.8.84,2.56.18l5.47-4.76Z"/>
          <path class="cls-15" d="m65.44,56.11c.76-.66.84-1.8.18-2.56-.66-.76-1.8-.84-2.56-.18l-5.47,4.76c-.75.66-.84,1.8-.18,2.56.66.76,1.8.84,2.56.18l5.47-4.76Z"/>
          <path class="cls-15" d="m46.53,42.16c.75-.66.84-1.8.18-2.56-.66-.76-1.8-.84-2.56-.18l-5.47,4.76c-.75.66-.83,1.8-.18,2.56.66.76,1.8.84,2.56.18l5.47-4.76Z"/>
          <path class="cls-15" d="m46.53,48.99c.75-.66.84-1.8.18-2.56-.66-.76-1.8-.84-2.56-.18l-5.47,4.76c-.75.66-.83,1.8-.18,2.56.66.76,1.8.84,2.56.18l5.47-4.76Z"/>
          <path class="cls-15" d="m65.44,42.16c.76-.66.84-1.8.18-2.56-.66-.76-1.8-.84-2.56-.18l-5.47,4.76c-.75.66-.84,1.8-.18,2.56.66.76,1.8.84,2.56.18l5.47-4.76Z"/>
          <path class="cls-15" d="m65.44,48.99c.76-.66.84-1.8.18-2.56-.66-.76-1.8-.84-2.56-.18l-5.47,4.76c-.75.66-.84,1.8-.18,2.56.66.76,1.8.84,2.56.18l5.47-4.76Z"/>
        </g>
        <rect class="cls-9" x="75.52" y="10.24" width="75.79" height="28.68"/>
        <g>
          <rect class="cls-9" x="-.14" y="10.24" width="75.79" height="28.68"/>
          <path class="cls-15" d="m10.31,38.3c-.76-.66-.84-1.8-.18-2.56.66-.75,1.8-.83,2.56-.18l5.47,4.76c.76.66.84,1.8.18,2.56-.66.75-1.8.83-2.56.18l-5.47-4.76Z"/>
          <path class="cls-15" d="m29.22,38.3c-.75-.66-.84-1.8-.18-2.56.66-.75,1.8-.83,2.56-.18l5.47,4.76c.75.66.84,1.8.18,2.56-.66.75-1.8.83-2.56.18l-5.47-4.76Z"/>
          <path class="cls-15" d="m48.14,38.3c-.75-.66-.84-1.8-.18-2.56.66-.75,1.8-.83,2.56-.18l5.47,4.76c.75.66.83,1.8.18,2.56-.66.75-1.8.83-2.56.18l-5.47-4.76Z"/>
          <path class="cls-15" d="m67.05,38.3c-.76-.66-.84-1.8-.18-2.56.66-.75,1.8-.83,2.56-.18l5.47,4.76c.76.66.84,1.8.18,2.56-.66.75-1.8.83-2.56.18l-5.47-4.76Z"/>
          <path class="cls-15" d="m10.31,31.18c-.76-.66-.84-1.8-.18-2.56.66-.75,1.8-.83,2.56-.18l5.47,4.76c.76.66.84,1.8.18,2.56-.66.75-1.8.83-2.56.18l-5.47-4.76Z"/>
          <path class="cls-15" d="m29.22,31.18c-.75-.66-.84-1.8-.18-2.56.66-.75,1.8-.83,2.56-.18l5.47,4.76c.75.66.84,1.8.18,2.56-.66.75-1.8.83-2.56.18l-5.47-4.76Z"/>
          <path class="cls-15" d="m48.14,31.18c-.75-.66-.84-1.8-.18-2.56.66-.75,1.8-.83,2.56-.18l5.47,4.76c.75.66.83,1.8.18,2.56-.66.75-1.8.83-2.56.18l-5.47-4.76Z"/>
          <path class="cls-15" d="m67.05,31.18c-.76-.66-.84-1.8-.18-2.56.66-.75,1.8-.83,2.56-.18l5.47,4.76c.76.66.84,1.8.18,2.56-.66.75-1.8.83-2.56.18l-5.47-4.76Z"/>
          <path class="cls-15" d="m10.31,24.05c-.76-.66-.84-1.8-.18-2.56.66-.75,1.8-.83,2.56-.18l5.47,4.76c.76.66.84,1.8.18,2.56-.66.75-1.8.83-2.56.18l-5.47-4.76Z"/>
          <path class="cls-15" d="m29.22,24.05c-.75-.66-.84-1.8-.18-2.56.66-.75,1.8-.83,2.56-.18l5.47,4.76c.75.66.84,1.8.18,2.56-.66.75-1.8.83-2.56.18l-5.47-4.76Z"/>
          <path class="cls-15" d="m48.14,24.05c-.75-.66-.84-1.8-.18-2.56.66-.75,1.8-.83,2.56-.18l5.47,4.76c.75.66.83,1.8.18,2.56-.66.75-1.8.83-2.56.18l-5.47-4.76Z"/>
          <path class="cls-15" d="m67.05,24.05c-.76-.66-.84-1.8-.18-2.56.66-.75,1.8-.83,2.56-.18l5.47,4.76c.76.66.84,1.8.18,2.56-.66.75-1.8.83-2.56.18l-5.47-4.76Z"/>
          <path class="cls-15" d="m10.31,16.93c-.76-.66-.84-1.8-.18-2.56.66-.75,1.8-.83,2.56-.18l5.47,4.76c.76.66.84,1.8.18,2.56-.66.75-1.8.83-2.56.18l-5.47-4.76Z"/>
          <path class="cls-15" d="m29.22,16.93c-.75-.66-.84-1.8-.18-2.56.66-.75,1.8-.83,2.56-.18l5.47,4.76c.75.66.84,1.8.18,2.56-.66.75-1.8.83-2.56.18l-5.47-4.76Z"/>
          <path class="cls-15" d="m48.14,16.93c-.75-.66-.84-1.8-.18-2.56.66-.75,1.8-.83,2.56-.18l5.47,4.76c.75.66.83,1.8.18,2.56-.66.75-1.8.83-2.56.18l-5.47-4.76Z"/>
          <path class="cls-15" d="m67.05,16.93c-.76-.66-.84-1.8-.18-2.56.66-.75,1.8-.83,2.56-.18l5.47,4.76c.76.66.84,1.8.18,2.56-.66.75-1.8.83-2.56.18l-5.47-4.76Z"/>
          <path class="cls-15" d="m8.7,34.74c.76-.66.84-1.8.18-2.56-.66-.76-1.8-.84-2.56-.18l-5.47,4.76c-.75.66-.83,1.8-.18,2.56.66.76,1.8.84,2.56.18l5.47-4.76Z"/>
          <path class="cls-15" d="m27.62,34.74c.75-.66.83-1.8.18-2.56-.66-.76-1.8-.84-2.56-.18l-5.47,4.76c-.76.66-.84,1.8-.18,2.56.66.76,1.8.84,2.56.18l5.47-4.76Z"/>
          <path class="cls-15" d="m8.7,27.61c.76-.66.84-1.8.18-2.56-.66-.76-1.8-.84-2.56-.18L.85,29.63c-.75.66-.83,1.8-.18,2.56.66.76,1.8.84,2.56.18l5.47-4.76Z"/>
          <path class="cls-15" d="m27.62,27.61c.75-.66.83-1.8.18-2.56-.66-.76-1.8-.84-2.56-.18l-5.47,4.76c-.76.66-.84,1.8-.18,2.56.66.76,1.8.84,2.56.18l5.47-4.76Z"/>
          <path class="cls-15" d="m46.53,34.74c.75-.66.84-1.8.18-2.56-.66-.76-1.8-.84-2.56-.18l-5.47,4.76c-.75.66-.83,1.8-.18,2.56.66.76,1.8.84,2.56.18l5.47-4.76Z"/>
          <path class="cls-15" d="m65.44,34.74c.76-.66.84-1.8.18-2.56-.66-.76-1.8-.84-2.56-.18l-5.47,4.76c-.75.66-.84,1.8-.18,2.56.66.76,1.8.84,2.56.18l5.47-4.76Z"/>
          <path class="cls-15" d="m8.7,13.66c.76-.66.84-1.8.18-2.56-.66-.76-1.8-.84-2.56-.18L.85,15.68c-.75.66-.83,1.8-.18,2.56.66.76,1.8.84,2.56.18l5.47-4.76Z"/>
          <path class="cls-15" d="m8.7,20.49c.76-.66.84-1.8.18-2.56-.66-.76-1.8-.84-2.56-.18L.85,22.51c-.75.66-.83,1.8-.18,2.56.66.76,1.8.84,2.56.18l5.47-4.76Z"/>
          <path class="cls-15" d="m27.62,13.66c.75-.66.83-1.8.18-2.56-.66-.76-1.8-.84-2.56-.18l-5.47,4.76c-.76.66-.84,1.8-.18,2.56.66.76,1.8.84,2.56.18l5.47-4.76Z"/>
          <path class="cls-15" d="m27.62,20.49c.75-.66.83-1.8.18-2.56-.66-.76-1.8-.84-2.56-.18l-5.47,4.76c-.76.66-.84,1.8-.18,2.56.66.76,1.8.84,2.56.18l5.47-4.76Z"/>
          <path class="cls-15" d="m46.53,27.61c.75-.66.84-1.8.18-2.56-.66-.76-1.8-.84-2.56-.18l-5.47,4.76c-.75.66-.83,1.8-.18,2.56.66.76,1.8.84,2.56.18l5.47-4.76Z"/>
          <path class="cls-15" d="m65.44,27.61c.76-.66.84-1.8.18-2.56-.66-.76-1.8-.84-2.56-.18l-5.47,4.76c-.75.66-.84,1.8-.18,2.56.66.76,1.8.84,2.56.18l5.47-4.76Z"/>
          <path class="cls-15" d="m46.53,13.66c.75-.66.84-1.8.18-2.56-.66-.76-1.8-.84-2.56-.18l-5.47,4.76c-.75.66-.83,1.8-.18,2.56.66.76,1.8.84,2.56.18l5.47-4.76Z"/>
          <path class="cls-15" d="m46.53,20.49c.75-.66.84-1.8.18-2.56-.66-.76-1.8-.84-2.56-.18l-5.47,4.76c-.75.66-.83,1.8-.18,2.56.66.76,1.8.84,2.56.18l5.47-4.76Z"/>
          <path class="cls-15" d="m65.44,13.66c.76-.66.84-1.8.18-2.56-.66-.76-1.8-.84-2.56-.18l-5.47,4.76c-.75.66-.84,1.8-.18,2.56.66.76,1.8.84,2.56.18l5.47-4.76Z"/>
          <path class="cls-15" d="m65.44,20.49c.76-.66.84-1.8.18-2.56-.66-.76-1.8-.84-2.56-.18l-5.47,4.76c-.75.66-.84,1.8-.18,2.56.66.76,1.8.84,2.56.18l5.47-4.76Z"/>
        </g>
        <rect class="cls-9" x="75.52" y="-18.26" width="75.79" height="28.68"/>
        <g>
          <rect class="cls-9" x="-.14" y="-18.26" width="75.79" height="28.68"/>
          <path class="cls-15" d="m10.31,9.8c-.76-.66-.84-1.8-.18-2.56.66-.75,1.8-.83,2.56-.18l5.47,4.76c.76.66.84,1.8.18,2.56-.66.75-1.8.83-2.56.18l-5.47-4.76Z"/>
          <path class="cls-15" d="m29.22,9.8c-.75-.66-.84-1.8-.18-2.56.66-.75,1.8-.83,2.56-.18l5.47,4.76c.75.66.84,1.8.18,2.56-.66.75-1.8.83-2.56.18l-5.47-4.76Z"/>
          <path class="cls-15" d="m48.14,9.8c-.75-.66-.84-1.8-.18-2.56.66-.75,1.8-.83,2.56-.18l5.47,4.76c.75.66.83,1.8.18,2.56-.66.75-1.8.83-2.56.18l-5.47-4.76Z"/>
          <path class="cls-15" d="m67.05,9.8c-.76-.66-.84-1.8-.18-2.56.66-.75,1.8-.83,2.56-.18l5.47,4.76c.76.66.84,1.8.18,2.56-.66.75-1.8.83-2.56.18l-5.47-4.76Z"/>
          <path class="cls-15" d="m10.31,2.68c-.76-.66-.84-1.8-.18-2.56.66-.75,1.8-.83,2.56-.18l5.47,4.76c.76.66.84,1.8.18,2.56-.66.75-1.8.83-2.56.18l-5.47-4.76Z"/>
          <path class="cls-15" d="m29.22,2.68c-.75-.66-.84-1.8-.18-2.56.66-.75,1.8-.83,2.56-.18l5.47,4.76c.75.66.84,1.8.18,2.56-.66.75-1.8.83-2.56.18l-5.47-4.76Z"/>
          <path class="cls-15" d="m48.14,2.68c-.75-.66-.84-1.8-.18-2.56.66-.75,1.8-.83,2.56-.18l5.47,4.76c.75.66.83,1.8.18,2.56-.66.75-1.8.83-2.56.18l-5.47-4.76Z"/>
          <path class="cls-15" d="m67.05,2.68c-.76-.66-.84-1.8-.18-2.56.66-.75,1.8-.83,2.56-.18l5.47,4.76c.76.66.84,1.8.18,2.56-.66.75-1.8.83-2.56.18l-5.47-4.76Z"/>
          <path class="cls-15" d="m10.31-4.45c-.76-.66-.84-1.8-.18-2.56.66-.75,1.8-.83,2.56-.18l5.47,4.76c.76.66.84,1.8.18,2.56-.66.75-1.8.83-2.56.18l-5.47-4.76Z"/>
          <path class="cls-15" d="m29.22-4.45c-.75-.66-.84-1.8-.18-2.56.66-.75,1.8-.83,2.56-.18l5.47,4.76c.75.66.84,1.8.18,2.56-.66.75-1.8.83-2.56.18l-5.47-4.76Z"/>
          <path class="cls-15" d="m48.14-4.45c-.75-.66-.84-1.8-.18-2.56.66-.75,1.8-.83,2.56-.18l5.47,4.76c.75.66.83,1.8.18,2.56-.66.75-1.8.83-2.56.18l-5.47-4.76Z"/>
          <path class="cls-15" d="m67.05-4.45c-.76-.66-.84-1.8-.18-2.56.66-.75,1.8-.83,2.56-.18l5.47,4.76c.76.66.84,1.8.18,2.56-.66.75-1.8.83-2.56.18l-5.47-4.76Z"/>
          <path class="cls-15" d="m8.7,6.24c.76-.66.84-1.8.18-2.56-.66-.76-1.8-.84-2.56-.18L.85,8.26c-.75.66-.83,1.8-.18,2.56.66.76,1.8.84,2.56.18l5.47-4.76Z"/>
          <path class="cls-15" d="m27.62,6.24c.75-.66.83-1.8.18-2.56-.66-.76-1.8-.84-2.56-.18l-5.47,4.76c-.76.66-.84,1.8-.18,2.56.66.76,1.8.84,2.56.18l5.47-4.76Z"/>
          <path class="cls-15" d="m8.7-.89c.76-.66.84-1.8.18-2.56-.66-.76-1.8-.84-2.56-.18L.85,1.13C.1,1.79.02,2.94.67,3.69c.66.76,1.8.84,2.56.18L8.7-.89Z"/>
          <path class="cls-15" d="m27.62-.89c.75-.66.83-1.8.18-2.56-.66-.76-1.8-.84-2.56-.18l-5.47,4.76c-.76.66-.84,1.8-.18,2.56.66.76,1.8.84,2.56.18L27.62-.89Z"/>
          <path class="cls-15" d="m46.53,6.24c.75-.66.84-1.8.18-2.56-.66-.76-1.8-.84-2.56-.18l-5.47,4.76c-.75.66-.83,1.8-.18,2.56.66.76,1.8.84,2.56.18l5.47-4.76Z"/>
          <path class="cls-15" d="m65.44,6.24c.76-.66.84-1.8.18-2.56-.66-.76-1.8-.84-2.56-.18l-5.47,4.76c-.75.66-.84,1.8-.18,2.56.66.76,1.8.84,2.56.18l5.47-4.76Z"/>
          <path class="cls-15" d="m46.53-.89c.75-.66.84-1.8.18-2.56-.66-.76-1.8-.84-2.56-.18l-5.47,4.76c-.75.66-.83,1.8-.18,2.56.66.76,1.8.84,2.56.18l5.47-4.76Z"/>
          <path class="cls-15" d="m65.44-.89c.76-.66.84-1.8.18-2.56-.66-.76-1.8-.84-2.56-.18l-5.47,4.76c-.75.66-.84,1.8-.18,2.56.66.76,1.8.84,2.56.18l5.47-4.76Z"/>
        </g>
      </g>
    </pattern>
  </defs>
  <g id="Layer_1-2" data-name="Layer 1">
    <g>
      <rect class="cls-3" y="288" width="1728" height="1441.08"/>
      <path class="cls-5" d="m1696.04,319.96v1377.16H31.96V319.96h1664.08m31.96-31.96H0v1441.08h1728V288h0Z"/>
    </g>
    <g>
      <rect class="cls-11" x="185.44" y="988.9" width="851.75" height="275.75"/>
      <path class="cls-14" d="m1031.07,995.02v263.51H191.56v-263.51h839.51m12.25-12.25H179.31v288h864v-288h0Z"/>
    </g>
    <g>
      <rect class="cls-8" x="1323.81" y="772.51" width="278" height="206"/>
      <path class="cls-14" d="m1596.81,777.51v196h-268v-196h268m10-10h-288v216h288v-216h0Z"/>
    </g>
    <rect class="cls-14" x="2.21" width="1728" height="288"/>
    <text class="cls-16" transform="translate(36.79 47.74)"><tspan x="0" y="0">STRE</tspan><tspan class="cls-4" x="48.48" y="0">E</tspan><tspan x="60.67" y="0">T</tspan></text>
    <g>
      <g>
        <rect class="cls-7" x="541.01" y="696.68" width="206" height="278"/>
        <path class="cls-14" d="m742.01,701.68v268h-196v-268h196m10-10h-216v288h216v-288h0Z"/>
      </g>
      <rect class="cls-7" x="600.61" y="946.66" width="89.76" height="33.02"/>
      <rect class="cls-7" x="627.5" y="691.68" width="33.02" height="89.76"/>
    </g>
    <g>
      <g>
        <rect class="cls-7" x="181.72" y="1277.78" width="276.5" height="274.39"/>
        <path class="cls-14" d="m452.47,1283.53v262.89H187.48v-262.89h264.99m11.5-11.5H175.97v285.9h288v-285.9h0Z"/>
      </g>
      <rect class="cls-7" x="283.93" y="1269.92" width="89.76" height="43.71"/>
      <rect class="cls-7" x="175.97" y="1393.12" width="89.76" height="43.71"/>
    </g>
    <g>
      <g>
        <rect class="cls-10" x="468.61" y="1274.92" width="278" height="278"/>
        <path class="cls-14" d="m741.61,1279.92v268h-268v-268h268m10-10h-288v288h288v-288h0Z"/>
      </g>
      <rect class="cls-10" x="554.26" y="1269.92" width="89.76" height="33.02"/>
      <rect class="cls-10" x="584.1" y="1468.17" width="33.02" height="89.76"/>
    </g>
    <g>
      <g>
        <rect class="cls-10" x="1047.27" y="980.41" width="352.09" height="280.09"/>
        <path class="cls-14" d="m1395.41,984.36v272.19h-344.19v-272.19h344.19m7.91-7.91h-360v288h360v-288h0Z"/>
      </g>
      <g>
        <g>
          <rect class="cls-7" x="1408.31" y="981.45" width="206" height="278"/>
          <path class="cls-14" d="m1609.31,986.45v268h-196v-268h196m10-10h-216v288h216v-288h0Z"/>
        </g>
        <rect class="cls-7" x="1394.24" y="1061.48" width="33.02" height="89.76"/>
        <rect class="cls-7" x="1494.8" y="1174.69" width="33.02" height="89.76"/>
        <rect class="cls-10" x="1043.31" y="1061.48" width="33.02" height="89.76"/>
      </g>
    </g>
    <g>
      <g>
        <rect class="cls-10" x="756.61" y="1277.54" width="278" height="278"/>
        <path class="cls-14" d="m1029.61,1282.54v268h-268v-268h268m10-10h-288v288h288v-288h0Z"/>
      </g>
      <rect class="cls-10" x="859.2" y="1527.52" width="89.76" height="33.02"/>
      <rect class="cls-10" x="886.09" y="1272.54" width="33.02" height="89.76"/>
    </g>
    <g>
      <g>
        <rect class="cls-6" x="1323.81" y="556.51" width="278" height="206"/>
        <path class="cls-14" d="m1596.81,561.51v196h-268v-196h268m10-10h-288v216h288v-216h0Z"/>
      </g>
      <rect class="cls-6" x="1477.98" y="551.51" width="32.08" height="20.47"/>
    </g>
    <g>
      <g>
        <rect class="cls-12" x="746.7" y="551.93" width="565.97" height="419.73"/>
        <path class="cls-14" d="m1306.54,558.07v407.46h-553.7v-407.46h553.7m12.27-12.27h-578.24v432h578.24v-432h0Z"/>
      </g>
      <rect class="cls-12" x="919.62" y="545.8" width="191.66" height="55.82"/>
      <rect class="cls-12" x="739.57" y="601.62" width="98.64" height="55.82"/>
    </g>
  </g>
</svg>