<?xml version="1.0" encoding="UTF-8"?>
<svg id="Layer_2" data-name="Layer 2" xmlns="http://www.w3.org/2000/svg" viewBox="0 0 1129.72 442.96">
  <defs>
    <style>
      .cls-1 {
        stroke-width: 16px;
      }

      .cls-1, .cls-2 {
        fill: #f3f3f4;
      }

      .cls-1, .cls-3 {
        stroke: #fff;
      }

      .cls-1, .cls-3, .cls-4 {
        stroke-miterlimit: 10;
      }

      .cls-1, .cls-4 {
        stroke-linecap: round;
      }

      .cls-5 {
        font-family: Futura-Medium, Futura;
        font-size: 52.17px;
        font-weight: 500;
      }

      .cls-5, .cls-3 {
        fill: #231f20;
      }

      .cls-6 {
        letter-spacing: -.06em;
      }

      .cls-7 {
        letter-spacing: -.06em;
      }

      .cls-4 {
        fill: #fff;
        stroke: #231f20;
        stroke-width: 14px;
      }
    </style>
  </defs>
  <g id="Layer_2-2" data-name="Layer 2">
    <g>
      <g>
        <rect class="cls-3" x="777.7" y=".5" width="351.52" height="351.52" rx="47.24" ry="47.24"/>
        <circle class="cls-2" cx="953.46" cy="176.26" r="106.98"/>
        <polyline class="cls-4" points="956.42 92.33 956.42 176.26 1014.86 176.26"/>
      </g>
      <text class="cls-5" transform="translate(863.73 427.91)"><tspan x="0" y="0">60 min.</tspan></text>
    </g>
    <g>
      <rect class="cls-3" x="389.1" y=".5" width="351.52" height="351.52" rx="47.24" ry="47.24"/>
      <g>
        <g>
          <g>
            <circle class="cls-2" cx="488.92" cy="119.73" r="27.4"/>
            <rect class="cls-2" x="439.16" y="126.14" width="58.51" height="121.05" rx="29.26" ry="29.26"/>
          </g>
          <g>
            <circle class="cls-2" cx="641.93" cy="120.49" r="27.4"/>
            <rect class="cls-2" x="632.05" y="126.14" width="58.51" height="121.05" rx="29.26" ry="29.26"/>
          </g>
        </g>
        <g>
          <polyline class="cls-1" points="517.61 181.6 564.86 181.6 612.1 181.6"/>
          <line class="cls-1" x1="564.86" y1="277.78" x2="564.86" y2="181.6"/>
        </g>
      </g>
      <text class="cls-5" transform="translate(512.45 427.91)"><tspan x="0" y="0">3-</tspan><tspan class="cls-7" x="43.56" y="0">1</tspan><tspan x="72.62" y="0">0</tspan></text>
    </g>
    <g>
      <g>
        <rect class="cls-3" x=".5" y=".5" width="351.52" height="351.52" rx="47.24" ry="47.24"/>
        <circle class="cls-2" cx="114.89" cy="119.73" r="36.47"/>
        <circle class="cls-2" cx="243.29" cy="181.6" r="30.81"/>
        <rect class="cls-2" x="78.42" y="147.08" width="72.94" height="153.87" rx="33.47" ry="33.47"/>
        <rect class="cls-2" x="214.03" y="193.42" width="58.51" height="107.53" rx="29.26" ry="29.26"/>
      </g>
      <text class="cls-5" transform="translate(130.38 427.91)"><tspan class="cls-6" x="0" y="0">1</tspan><tspan x="29.06" y="0">0+</tspan></text>
    </g>
  </g>
</svg>